<svg width="28" height="28" viewBox="0 0 28 28" fill="none" xmlns="http://www.w3.org/2000/svg">
<path d="M27.405 1.90748C27.3459 1.69529 27.2628 1.17029 26.9259 1.26654C26.705 1.32998 26.5365 1.76967 26.3747 1.92279C24.8215 3.41029 22.8944 3.61811 20.8381 3.63123C20.3175 3.63561 18.3772 3.46936 18.0534 3.98123C17.944 4.15842 18.2197 4.23279 18.2853 4.39904C18.5697 5.09467 17.8719 5.93248 17.3665 6.31311C16.7278 6.79654 15.8265 6.96936 15.1003 6.57342C14.6584 6.33498 14.3172 5.92811 14.5359 5.39217C14.6234 5.17998 15.1856 4.85404 14.9603 4.62873C14.8378 4.50623 14.5622 4.55436 14.409 4.57186C14.0153 4.61561 13.6325 4.72936 13.2519 4.84092C12.3309 5.10342 11.4472 5.46873 10.6006 5.91061C8.92717 6.78123 7.43092 7.95811 6.15342 9.34279C4.81905 10.7844 3.95717 12.6328 3.59405 14.5578C3.44967 15.3344 3.38186 16.1262 3.39936 16.9181C3.43655 18.5784 4.13217 20.0397 3.15217 21.5906C2.9903 21.8465 2.83717 22.0915 2.6403 22.3212C2.2553 22.7719 1.85499 23.1897 1.45249 23.625C1.07186 24.0319 0.636549 24.3622 0.262486 24.7756C-0.201264 25.2875 0.172799 25.8322 0.564361 26.274C0.929674 26.6875 1.56624 26.8647 2.09561 26.6722C2.68405 26.4578 2.84592 25.749 3.12374 25.2569C3.41686 24.7362 3.72092 24.2244 4.0578 23.7344C4.31592 23.3625 4.58717 22.949 4.96999 22.6931C5.51249 22.33 5.8253 22.5312 6.4028 22.669C6.73092 22.7456 7.04592 22.8484 7.35874 22.9775C7.97999 23.229 8.57717 23.5484 9.21592 23.754C11.049 24.3381 13.02 24.6225 14.9428 24.4934C15.2206 24.4759 15.7784 24.5547 15.7172 24.1084C15.6669 23.7453 15.2053 23.8022 14.9581 23.6447C12.495 22.0784 13.9431 18.5828 16.1656 17.5569C18.2569 16.5922 21.6584 16.9597 22.2906 19.5715C22.3322 19.74 22.2753 20.219 22.4197 20.3284C23.3406 21.0109 26.6831 13.3153 26.9522 12.46C27.9934 9.16561 28.3456 5.26529 27.405 1.90748Z" fill="#F79329"/>
<path d="M26.764 2.76279C26.7356 2.75623 26.7006 2.76717 26.6547 2.80217C26.5387 2.89185 26.449 3.14779 26.3987 3.28342C25.5915 5.44904 24.2681 6.90592 22.459 8.29498C21.4922 9.03654 20.4268 9.6381 19.3637 10.2287C17.92 11.0315 16.4697 11.819 15.05 12.6634C13.4072 13.639 11.2153 14.7831 9.69716 15.9381C8.67997 16.7147 7.65403 17.4825 6.71778 18.3553C6.4006 18.6528 6.08997 18.959 5.79904 19.285C5.48841 19.6328 5.02904 20.0987 4.96341 20.5844C4.9306 20.8206 5.1406 21.0962 5.39872 21.0787C5.70935 21.0547 5.97841 20.545 6.1731 20.3328C6.50341 19.9762 6.84903 19.6372 7.18591 19.285C7.67591 18.7753 8.1681 18.2678 8.7106 17.8172C9.97716 16.765 11.3356 15.7894 12.7268 14.9056C13.5231 14.4025 14.3325 13.9256 15.1593 13.475C16.7431 12.6109 18.329 11.7469 19.88 10.8259C22.1462 9.47842 24.5065 7.99967 25.8847 5.67435C26.0247 5.4381 27.2737 2.86342 26.764 2.76279Z" fill="#CD801F"/>
</svg>
