<svg width="32" height="32" viewBox="0 0 32 32" fill="none" xmlns="http://www.w3.org/2000/svg">
<path d="M26 19.34C26 25.44 20.95 30.345 14.85 29.981C8.58101 29.607 4.29001 23.578 5.09801 17.276C5.58701 13.443 7.38401 10.156 9.34001 7.606C9.68001 7.161 10.029 10.742 10.378 10.348C10.728 9.943 13.972 4.329 15.1 2.357C15.1485 2.27002 15.2152 2.1945 15.2955 2.13557C15.3758 2.07664 15.4678 2.03568 15.5653 2.01547C15.6628 1.99527 15.7636 1.99629 15.8607 2.01846C15.9577 2.04064 16.0489 2.08346 16.128 2.144C18.394 3.854 26 10.277 26 19.34Z" fill="#FF6723"/>
<path d="M23 21.851C23 25.893 19.481 29.142 15.201 28.995C10.581 28.839 7.41299 24.611 8.09099 20.256C9.06999 14.012 15.48 10 15.48 10C15.48 10 23 14.707 23 21.851Z" fill="#FFB02E"/>
</svg>
