<svg width="28" height="28" viewBox="0 0 28 28" fill="none" xmlns="http://www.w3.org/2000/svg">
<path d="M8.16671 25.6667H4.66671C4.04787 25.6667 3.45438 25.4209 3.01679 24.9833C2.57921 24.5457 2.33337 23.9522 2.33337 23.3334V15.1667C2.33337 14.5479 2.57921 13.9544 3.01679 13.5168C3.45438 13.0792 4.04787 12.8334 4.66671 12.8334H8.16671M16.3334 10.5V5.83337C16.3334 4.90512 15.9646 4.01488 15.3082 3.3585C14.6519 2.70212 13.7616 2.33337 12.8334 2.33337L8.16671 12.8334V25.6667H21.3267C21.8894 25.6731 22.4355 25.4758 22.8643 25.1114C23.293 24.7469 23.5757 24.2398 23.66 23.6834L25.27 13.1834C25.3208 12.849 25.2982 12.5075 25.2039 12.1827C25.1096 11.8578 24.9458 11.5574 24.7239 11.3021C24.5019 11.0469 24.2271 10.843 23.9185 10.7045C23.6099 10.566 23.2749 10.4962 22.9367 10.5H16.3334Z" stroke="#888888" stroke-width="2" stroke-linecap="round" stroke-linejoin="round"/>
</svg>
