<svg width="28" height="28" viewBox="0 0 28 28" fill="none" xmlns="http://www.w3.org/2000/svg">
<path d="M8.16634 25.6663H4.66634C4.0475 25.6663 3.45401 25.4205 3.01643 24.9829C2.57884 24.5453 2.33301 23.9518 2.33301 23.333V15.1663C2.33301 14.5475 2.57884 13.954 3.01643 13.5164C3.45401 13.0788 4.0475 12.833 4.66634 12.833H8.16634M16.333 10.4997V5.83301C16.333 4.90475 15.9643 4.01451 15.3079 3.35813C14.6515 2.70176 13.7613 2.33301 12.833 2.33301L8.16634 12.833V25.6663H21.3263C21.8891 25.6727 22.4351 25.4755 22.8639 25.111C23.2927 24.7465 23.5753 24.2394 23.6597 23.683L25.2697 13.183C25.3204 12.8486 25.2979 12.5071 25.2036 12.1823C25.1093 11.8575 24.9455 11.557 24.7235 11.3018C24.5016 11.0465 24.2268 10.8426 23.9182 10.7041C23.6096 10.5656 23.2746 10.4958 22.9363 10.4997H16.333Z" stroke="white" stroke-width="2" stroke-linecap="round" stroke-linejoin="round"/>
</svg>
