<svg width="16" height="16" viewBox="0 0 16 16" fill="none" xmlns="http://www.w3.org/2000/svg">
<path fill-rule="evenodd" clip-rule="evenodd" d="M1.19995 9.68159C1.19995 10.212 1.41066 10.7207 1.78574 11.0958C2.16081 11.4709 2.66952 11.6816 3.19995 11.6816H3.39915C3.64475 12.672 3.99195 13.2 4.56315 13.2C5.04555 13.2 5.77835 12.704 6.91515 11.6816H12.8C13.3304 11.6816 13.8391 11.4709 14.2142 11.0958C14.5892 10.7207 14.8 10.212 14.8 9.68159V4.79999C14.8 4.26955 14.5892 3.76085 14.2142 3.38577C13.8391 3.0107 13.3304 2.79999 12.8 2.79999H3.19995C2.66952 2.79999 2.16081 3.0107 1.78574 3.38577C1.41066 3.76085 1.19995 4.26955 1.19995 4.79999V9.68159ZM1.99995 9.68159V4.79999C1.99995 4.48173 2.12638 4.1765 2.35142 3.95146C2.57647 3.72642 2.88169 3.59999 3.19995 3.59999H12.8C13.1182 3.59999 13.4234 3.72642 13.6485 3.95146C13.8735 4.1765 14 4.48173 14 4.79999V9.68159C14 9.99985 13.8735 10.3051 13.6485 10.5301C13.4234 10.7552 13.1182 10.8816 12.8 10.8816H6.60555L6.49115 10.9856C5.46715 11.9184 4.76795 12.4 4.56315 12.4C4.48955 12.4 4.28315 12.0296 4.10955 11.2L4.04315 10.8816H3.19995C2.88169 10.8816 2.57647 10.7552 2.35142 10.5301C2.12638 10.3051 1.99995 9.99985 1.99995 9.68159Z" fill="#888888"/>
<path d="M5.60005 7.99996C6.04188 7.99996 6.40005 7.64179 6.40005 7.19996C6.40005 6.75814 6.04188 6.39996 5.60005 6.39996C5.15822 6.39996 4.80005 6.75814 4.80005 7.19996C4.80005 7.64179 5.15822 7.99996 5.60005 7.99996Z" fill="#888888"/>
<path d="M7.99995 7.99996C8.44178 7.99996 8.79995 7.64179 8.79995 7.19996C8.79995 6.75814 8.44178 6.39996 7.99995 6.39996C7.55812 6.39996 7.19995 6.75814 7.19995 7.19996C7.19995 7.64179 7.55812 7.99996 7.99995 7.99996Z" fill="#888888"/>
<path d="M10.3999 7.99996C10.8417 7.99996 11.1999 7.64179 11.1999 7.19996C11.1999 6.75814 10.8417 6.39996 10.3999 6.39996C9.95803 6.39996 9.59985 6.75814 9.59985 7.19996C9.59985 7.64179 9.95803 7.99996 10.3999 7.99996Z" fill="#888888"/>
</svg>
